<svg xmlns="http://www.w3.org/2000/svg" xmlns:xlink="http://www.w3.org/1999/xlink" width="500" zoomAndPan="magnify" viewBox="0 0 375 374.999991" height="500" preserveAspectRatio="xMidYMid meet" version="1.0"><defs><g/><clipPath id="f37f2dc82f"><path d="M 132 87 L 242.984375 87 L 242.984375 218.535156 L 132 218.535156 Z M 132 87 " clip-rule="nonzero"/></clipPath></defs><g clip-path="url(#f37f2dc82f)"><path fill="#ffffff" d="M 191.847656 88.957031 L 226.707031 123.828125 C 237.183594 134.308594 242.953125 148.242188 242.953125 163.0625 C 242.953125 177.882812 237.183594 191.816406 226.707031 202.292969 C 216.230469 212.773438 202.300781 218.546875 187.488281 218.546875 C 172.675781 218.546875 158.746094 212.777344 148.269531 202.296875 C 137.796875 191.816406 132.027344 177.882812 132.027344 163.0625 C 132.027344 148.246094 137.796875 134.308594 148.269531 123.832031 C 149.429688 122.675781 150.992188 122.027344 152.628906 122.027344 C 154.265625 122.027344 155.832031 122.675781 156.988281 123.832031 L 174.417969 141.269531 C 176.824219 143.675781 176.824219 147.578125 174.417969 149.988281 C 167.207031 157.199219 167.207031 168.929688 174.417969 176.144531 C 181.625 183.355469 193.355469 183.355469 200.5625 176.144531 C 204.054688 172.648438 205.976562 168.007812 205.976562 163.066406 C 205.976562 158.128906 204.054688 153.480469 200.5625 149.992188 L 183.132812 132.554688 C 180.726562 130.148438 180.726562 126.242188 183.132812 123.835938 C 185.539062 121.425781 189.441406 121.425781 191.851562 123.835938 L 209.28125 141.269531 C 215.101562 147.09375 218.304688 154.835938 218.304688 163.066406 C 218.304688 171.300781 215.101562 179.039062 209.28125 184.863281 C 197.265625 196.882812 177.714844 196.882812 165.703125 184.863281 C 155.179688 174.335938 153.871094 158.027344 161.78125 146.066406 L 152.9375 137.214844 C 147.363281 144.636719 144.351562 153.617188 144.351562 163.0625 C 144.351562 174.589844 148.835938 185.429688 156.984375 193.578125 C 165.132812 201.726562 175.964844 206.21875 187.484375 206.21875 C 199.007812 206.21875 209.84375 201.726562 217.988281 193.578125 C 226.136719 185.425781 230.625 174.589844 230.625 163.0625 C 230.625 151.539062 226.136719 140.699219 217.988281 132.546875 L 183.128906 97.675781 C 180.726562 95.269531 180.726562 91.363281 183.128906 88.957031 C 185.539062 86.546875 189.441406 86.546875 191.847656 88.957031 Z M 171.261719 116.796875 C 171.660156 116.71875 172.042969 116.601562 172.417969 116.449219 C 172.785156 116.292969 173.144531 116.101562 173.480469 115.882812 C 173.648438 115.765625 173.8125 115.648438 173.964844 115.519531 C 174.121094 115.390625 174.273438 115.253906 174.417969 115.113281 C 174.558594 114.972656 174.695312 114.820312 174.820312 114.664062 C 174.949219 114.507812 175.074219 114.34375 175.179688 114.175781 C 175.398438 113.84375 175.59375 113.488281 175.746094 113.113281 C 175.894531 112.738281 176.015625 112.355469 176.09375 111.960938 C 176.132812 111.761719 176.164062 111.5625 176.191406 111.355469 C 176.210938 111.160156 176.21875 110.953125 176.21875 110.753906 C 176.21875 109.132812 175.558594 107.539062 174.414062 106.394531 C 173.265625 105.246094 171.679688 104.585938 170.054688 104.585938 C 169.855469 104.585938 169.652344 104.597656 169.453125 104.617188 C 169.25 104.636719 169.050781 104.667969 168.855469 104.707031 C 168.460938 104.785156 168.070312 104.902344 167.699219 105.058594 C 167.324219 105.210938 166.972656 105.402344 166.636719 105.625 C 166.46875 105.734375 166.304688 105.855469 166.148438 105.984375 C 165.992188 106.113281 165.84375 106.25 165.699219 106.390625 C 165.558594 106.535156 165.421875 106.683594 165.292969 106.839844 C 165.167969 106.996094 165.046875 107.160156 164.9375 107.328125 C 164.714844 107.660156 164.523438 108.015625 164.371094 108.390625 C 164.214844 108.761719 164.097656 109.152344 164.015625 109.542969 C 163.976562 109.738281 163.945312 109.9375 163.925781 110.144531 C 163.886719 110.542969 163.886719 110.953125 163.925781 111.351562 C 163.945312 111.554688 163.976562 111.753906 164.015625 111.953125 C 164.09375 112.347656 164.210938 112.734375 164.371094 113.109375 C 164.523438 113.476562 164.714844 113.839844 164.9375 114.171875 C 165.046875 114.339844 165.167969 114.507812 165.292969 114.65625 C 165.421875 114.816406 165.558594 114.96875 165.699219 115.105469 C 165.84375 115.25 165.992188 115.386719 166.148438 115.515625 C 166.304688 115.644531 166.46875 115.761719 166.636719 115.875 C 166.972656 116.097656 167.324219 116.285156 167.699219 116.441406 C 168.070312 116.597656 168.460938 116.714844 168.855469 116.792969 C 169.050781 116.832031 169.25 116.863281 169.453125 116.882812 C 169.652344 116.902344 169.855469 116.914062 170.054688 116.914062 C 170.257812 116.914062 170.460938 116.902344 170.664062 116.882812 C 170.863281 116.867188 171.066406 116.835938 171.261719 116.796875 Z M 171.261719 116.796875 " fill-opacity="1" fill-rule="nonzero"/></g><g fill="#ffffff" fill-opacity="1"><g transform="translate(85.175734, 254.708815)"><g><path d="M 13.835938 -12.523438 C 15 -13.574219 15.710938 -15.074219 15.710938 -16.800781 C 15.710938 -20.210938 12.9375 -22.800781 9.113281 -22.800781 C 5.25 -22.800781 2.476562 -20.210938 2.476562 -16.800781 C 2.476562 -15.074219 3.1875 -13.574219 4.386719 -12.523438 C 2.363281 -11.324219 1.125 -9.300781 1.125 -6.824219 C 1.125 -2.773438 4.5 0.300781 9.113281 0.300781 C 13.726562 0.300781 17.101562 -2.773438 17.101562 -6.824219 C 17.101562 -9.300781 15.863281 -11.324219 13.835938 -12.523438 Z M 6.523438 -16.386719 C 6.523438 -17.851562 7.648438 -18.976562 9.113281 -18.976562 C 10.574219 -18.976562 11.699219 -17.851562 11.699219 -16.386719 C 11.699219 -14.886719 10.574219 -13.761719 9.113281 -13.761719 C 7.648438 -13.761719 6.523438 -14.886719 6.523438 -16.386719 Z M 9.113281 -3.898438 C 7.3125 -3.898438 5.960938 -5.363281 5.960938 -7.199219 C 5.960938 -9.039062 7.3125 -10.351562 9.113281 -10.351562 C 10.914062 -10.351562 12.261719 -9.039062 12.261719 -7.199219 C 12.261719 -5.363281 10.914062 -3.898438 9.113281 -3.898438 Z M 9.113281 -3.898438 "/></g></g></g><g fill="#ffffff" fill-opacity="1"><g transform="translate(102.800712, 254.708815)"><g/></g></g><g fill="#ffffff" fill-opacity="1"><g transform="translate(111.200701, 254.708815)"><g><path d="M 7.164062 -4.386719 L 7.164062 -22.5 L 2.210938 -22.5 L 2.210938 0 L 14.625 0 L 14.625 -4.386719 Z M 7.164062 -4.386719 "/></g></g></g><g fill="#ffffff" fill-opacity="1"><g transform="translate(125.300682, 254.708815)"><g><path d="M 2.398438 0 L 7.351562 0 L 7.351562 -22.5 L 2.398438 -22.5 Z M 2.398438 0 "/></g></g></g><g fill="#ffffff" fill-opacity="1"><g transform="translate(134.413168, 254.708815)"><g><path d="M 18.375 -22.5 L 18.375 -7.613281 L 7.3125 -22.5 L 2.210938 -22.5 L 2.210938 0 L 7.164062 0 L 7.164062 -14.925781 L 18.1875 0 L 23.289062 0 L 23.289062 -22.5 Z M 18.375 -22.5 "/></g></g></g><g fill="#ffffff" fill-opacity="1"><g transform="translate(159.350643, 254.708815)"><g><path d="M 15.9375 -18.148438 L 15.9375 -22.5 L 2.398438 -22.5 L 2.398438 0 L 15.9375 0 L 15.9375 -4.351562 L 7.351562 -4.351562 L 7.351562 -9.074219 L 14.699219 -9.074219 L 14.699219 -13.425781 L 7.351562 -13.425781 L 7.351562 -18.148438 Z M 15.9375 -18.148438 "/></g></g></g><g fill="#ffffff" fill-opacity="1"><g transform="translate(176.225619, 254.708815)"><g><path d="M 9.148438 0.300781 C 13.351562 0.300781 16.914062 -2.175781 16.914062 -6.375 C 16.914062 -14.699219 6.5625 -12.636719 6.5625 -16.539062 C 6.5625 -17.8125 7.539062 -18.414062 8.738281 -18.414062 C 10.011719 -18.414062 11.289062 -17.699219 12.414062 -16.460938 L 15.710938 -19.613281 C 14.0625 -21.523438 11.550781 -22.800781 8.773438 -22.800781 C 5.210938 -22.800781 1.574219 -20.664062 1.574219 -16.164062 C 1.574219 -8.511719 11.960938 -10.351562 11.960938 -6.414062 C 11.960938 -5.175781 10.914062 -4.351562 9.1875 -4.351562 C 7.125 -4.351562 5.511719 -5.511719 4.6875 -7.273438 L 0.601562 -4.726562 C 2.0625 -1.914062 5.210938 0.300781 9.148438 0.300781 Z M 9.148438 0.300781 "/></g></g></g><g fill="#ffffff" fill-opacity="1"><g transform="translate(193.400602, 254.708815)"><g/></g></g><g fill="#ffffff" fill-opacity="1"><g transform="translate(201.800588, 254.708815)"><g><path d="M 12.9375 0.300781 C 17.398438 0.300781 21.261719 -2.210938 23.175781 -5.886719 L 18.898438 -8.101562 C 17.8125 -5.960938 15.601562 -4.539062 12.9375 -4.539062 C 9.148438 -4.539062 6.261719 -7.460938 6.261719 -11.25 C 6.261719 -15.039062 9.148438 -17.960938 12.9375 -17.960938 C 15.601562 -17.960938 17.8125 -16.539062 18.898438 -14.398438 L 23.175781 -16.613281 C 21.261719 -20.289062 17.398438 -22.800781 12.9375 -22.800781 C 6.5625 -22.800781 1.386719 -17.625 1.386719 -11.25 C 1.386719 -4.875 6.5625 0.300781 12.9375 0.300781 Z M 12.9375 0.300781 "/></g></g></g><g fill="#ffffff" fill-opacity="1"><g transform="translate(225.350559, 254.708815)"><g><path d="M 12.9375 0.300781 C 19.351562 0.300781 24.488281 -4.875 24.488281 -11.25 C 24.488281 -17.625 19.351562 -22.800781 12.9375 -22.800781 C 6.5625 -22.800781 1.386719 -17.625 1.386719 -11.25 C 1.386719 -4.875 6.5625 0.300781 12.9375 0.300781 Z M 12.9375 -4.539062 C 9.148438 -4.539062 6.261719 -7.460938 6.261719 -11.25 C 6.261719 -15.039062 9.148438 -17.960938 12.9375 -17.960938 C 16.761719 -17.960938 19.648438 -15.039062 19.648438 -11.25 C 19.648438 -7.460938 16.761719 -4.539062 12.9375 -4.539062 Z M 12.9375 -4.539062 "/></g></g></g><g fill="#ffffff" fill-opacity="1"><g transform="translate(250.663034, 254.708815)"><g><path d="M 2.210938 0 L 9.636719 0 C 15.824219 0 20.886719 -5.023438 20.886719 -11.25 C 20.886719 -17.476562 15.824219 -22.5 9.636719 -22.5 L 2.210938 -22.5 Z M 7.164062 -4.386719 L 7.164062 -18.113281 L 9.601562 -18.113281 C 13.164062 -18.113281 15.9375 -15.148438 15.9375 -11.25 C 15.9375 -7.351562 13.164062 -4.386719 9.601562 -4.386719 Z M 7.164062 -4.386719 "/></g></g></g><g fill="#ffffff" fill-opacity="1"><g transform="translate(272.338004, 254.708815)"><g><path d="M 15.9375 -18.148438 L 15.9375 -22.5 L 2.398438 -22.5 L 2.398438 0 L 15.9375 0 L 15.9375 -4.351562 L 7.351562 -4.351562 L 7.351562 -9.074219 L 14.699219 -9.074219 L 14.699219 -13.425781 L 7.351562 -13.425781 L 7.351562 -18.148438 Z M 15.9375 -18.148438 "/></g></g></g></svg>