<svg xmlns="http://www.w3.org/2000/svg" xmlns:xlink="http://www.w3.org/1999/xlink" width="500" zoomAndPan="magnify" viewBox="0 0 375 374.999991" height="500" preserveAspectRatio="xMidYMid meet" version="1.0"><defs><g/><clipPath id="2b26f430d3"><path d="M 131.984375 87 L 242.984375 87 L 242.984375 218.496094 L 131.984375 218.496094 Z M 131.984375 87 " clip-rule="nonzero"/></clipPath></defs><rect x="-37.5" width="450" fill="#ffffff" y="-37.499999" height="449.999989" fill-opacity="1"/><g clip-path="url(#2b26f430d3)"><path fill="#000000" d="M 191.851562 88.917969 L 226.730469 123.789062 C 237.210938 134.269531 242.984375 148.203125 242.984375 163.023438 C 242.984375 177.84375 237.210938 191.777344 226.730469 202.257812 C 216.25 212.734375 202.3125 218.507812 187.488281 218.507812 C 172.664062 218.507812 158.726562 212.738281 148.246094 202.257812 C 137.765625 191.78125 131.992188 177.84375 131.992188 163.027344 C 131.992188 148.207031 137.765625 134.273438 148.246094 123.792969 C 149.402344 122.636719 150.972656 121.988281 152.609375 121.988281 C 154.246094 121.988281 155.8125 122.640625 156.96875 123.792969 L 174.410156 141.230469 C 176.816406 143.636719 176.816406 147.539062 174.410156 149.949219 C 167.195312 157.160156 167.195312 168.894531 174.410156 176.105469 C 181.621094 183.316406 193.359375 183.316406 200.570312 176.105469 C 204.066406 172.613281 205.988281 167.96875 205.988281 163.027344 C 205.988281 158.089844 204.0625 153.445312 200.570312 149.953125 L 183.128906 132.515625 C 180.722656 130.109375 180.722656 126.207031 183.128906 123.796875 C 185.539062 121.390625 189.441406 121.390625 191.851562 123.796875 L 209.292969 141.234375 C 215.117188 147.054688 218.324219 154.796875 218.324219 163.027344 C 218.324219 171.261719 215.117188 179.003906 209.292969 184.824219 C 197.273438 196.84375 177.710938 196.84375 165.691406 184.824219 C 155.160156 174.296875 153.851562 157.988281 161.765625 146.027344 L 152.914062 137.179688 C 147.339844 144.597656 144.324219 153.582031 144.324219 163.027344 C 144.324219 174.554688 148.8125 185.390625 156.964844 193.539062 C 165.117188 201.691406 175.957031 206.179688 187.484375 206.179688 C 199.011719 206.179688 209.855469 201.691406 218.007812 193.539062 C 226.160156 185.386719 230.652344 174.550781 230.652344 163.027344 C 230.652344 151.5 226.160156 140.660156 218.007812 132.511719 L 183.128906 97.636719 C 180.71875 95.230469 180.71875 91.328125 183.128906 88.917969 C 185.539062 86.511719 189.441406 86.511719 191.851562 88.917969 Z M 171.253906 116.761719 C 171.648438 116.683594 172.03125 116.5625 172.40625 116.410156 C 172.777344 116.253906 173.136719 116.066406 173.472656 115.84375 C 173.640625 115.730469 173.804688 115.613281 173.953125 115.484375 C 174.113281 115.355469 174.265625 115.214844 174.410156 115.074219 C 174.550781 114.9375 174.6875 114.78125 174.8125 114.625 C 174.941406 114.472656 175.066406 114.304688 175.171875 114.136719 C 175.394531 113.808594 175.585938 113.449219 175.738281 113.074219 C 175.890625 112.699219 176.007812 112.316406 176.085938 111.921875 C 176.128906 111.726562 176.15625 111.523438 176.183594 111.320312 C 176.203125 111.121094 176.210938 110.914062 176.210938 110.714844 C 176.210938 109.09375 175.550781 107.5 174.40625 106.355469 C 173.257812 105.207031 171.667969 104.546875 170.046875 104.546875 C 169.84375 104.546875 169.640625 104.558594 169.441406 104.582031 C 169.238281 104.601562 169.039062 104.628906 168.84375 104.667969 C 168.449219 104.75 168.058594 104.867188 167.6875 105.019531 C 167.3125 105.175781 166.960938 105.363281 166.625 105.585938 C 166.457031 105.699219 166.292969 105.820312 166.136719 105.945312 C 165.980469 106.074219 165.832031 106.210938 165.6875 106.355469 C 165.542969 106.496094 165.40625 106.644531 165.277344 106.800781 C 165.15625 106.957031 165.03125 107.121094 164.921875 107.289062 C 164.699219 107.621094 164.507812 107.980469 164.355469 108.355469 C 164.199219 108.722656 164.082031 109.113281 164 109.503906 C 163.960938 109.699219 163.929688 109.902344 163.910156 110.105469 C 163.871094 110.503906 163.871094 110.914062 163.910156 111.3125 C 163.929688 111.515625 163.960938 111.714844 164 111.914062 C 164.078125 112.3125 164.195312 112.695312 164.355469 113.070312 C 164.511719 113.441406 164.699219 113.800781 164.921875 114.132812 C 165.03125 114.300781 165.15625 114.46875 165.277344 114.621094 C 165.40625 114.777344 165.542969 114.929688 165.6875 115.066406 C 165.832031 115.210938 165.980469 115.347656 166.136719 115.476562 C 166.292969 115.605469 166.457031 115.722656 166.625 115.839844 C 166.960938 116.058594 167.3125 116.246094 167.6875 116.40625 C 168.058594 116.558594 168.449219 116.675781 168.84375 116.753906 C 169.039062 116.792969 169.238281 116.824219 169.441406 116.84375 C 169.640625 116.863281 169.84375 116.878906 170.046875 116.878906 C 170.246094 116.878906 170.449219 116.863281 170.652344 116.84375 C 170.851562 116.828125 171.054688 116.800781 171.253906 116.761719 Z M 171.253906 116.761719 " fill-opacity="1" fill-rule="nonzero"/></g><g fill="#000000" fill-opacity="1"><g transform="translate(85.175734, 254.708832)"><g><path d="M 13.835938 -12.523438 C 15 -13.574219 15.710938 -15.074219 15.710938 -16.800781 C 15.710938 -20.210938 12.9375 -22.800781 9.113281 -22.800781 C 5.25 -22.800781 2.476562 -20.210938 2.476562 -16.800781 C 2.476562 -15.074219 3.1875 -13.574219 4.386719 -12.523438 C 2.363281 -11.324219 1.125 -9.300781 1.125 -6.824219 C 1.125 -2.773438 4.5 0.300781 9.113281 0.300781 C 13.726562 0.300781 17.101562 -2.773438 17.101562 -6.824219 C 17.101562 -9.300781 15.863281 -11.324219 13.835938 -12.523438 Z M 6.523438 -16.386719 C 6.523438 -17.851562 7.648438 -18.976562 9.113281 -18.976562 C 10.574219 -18.976562 11.699219 -17.851562 11.699219 -16.386719 C 11.699219 -14.886719 10.574219 -13.761719 9.113281 -13.761719 C 7.648438 -13.761719 6.523438 -14.886719 6.523438 -16.386719 Z M 9.113281 -3.898438 C 7.3125 -3.898438 5.960938 -5.363281 5.960938 -7.199219 C 5.960938 -9.039062 7.3125 -10.351562 9.113281 -10.351562 C 10.914062 -10.351562 12.261719 -9.039062 12.261719 -7.199219 C 12.261719 -5.363281 10.914062 -3.898438 9.113281 -3.898438 Z M 9.113281 -3.898438 "/></g></g></g><g fill="#000000" fill-opacity="1"><g transform="translate(102.800712, 254.708832)"><g/></g></g><g fill="#000000" fill-opacity="1"><g transform="translate(111.200701, 254.708832)"><g><path d="M 7.164062 -4.386719 L 7.164062 -22.5 L 2.210938 -22.5 L 2.210938 0 L 14.625 0 L 14.625 -4.386719 Z M 7.164062 -4.386719 "/></g></g></g><g fill="#000000" fill-opacity="1"><g transform="translate(125.300682, 254.708832)"><g><path d="M 2.398438 0 L 7.351562 0 L 7.351562 -22.5 L 2.398438 -22.5 Z M 2.398438 0 "/></g></g></g><g fill="#000000" fill-opacity="1"><g transform="translate(134.413168, 254.708832)"><g><path d="M 18.375 -22.5 L 18.375 -7.613281 L 7.3125 -22.5 L 2.210938 -22.5 L 2.210938 0 L 7.164062 0 L 7.164062 -14.925781 L 18.1875 0 L 23.289062 0 L 23.289062 -22.5 Z M 18.375 -22.5 "/></g></g></g><g fill="#000000" fill-opacity="1"><g transform="translate(159.350643, 254.708832)"><g><path d="M 15.9375 -18.148438 L 15.9375 -22.5 L 2.398438 -22.5 L 2.398438 0 L 15.9375 0 L 15.9375 -4.351562 L 7.351562 -4.351562 L 7.351562 -9.074219 L 14.699219 -9.074219 L 14.699219 -13.425781 L 7.351562 -13.425781 L 7.351562 -18.148438 Z M 15.9375 -18.148438 "/></g></g></g><g fill="#000000" fill-opacity="1"><g transform="translate(176.225619, 254.708832)"><g><path d="M 9.148438 0.300781 C 13.351562 0.300781 16.914062 -2.175781 16.914062 -6.375 C 16.914062 -14.699219 6.5625 -12.636719 6.5625 -16.539062 C 6.5625 -17.8125 7.539062 -18.414062 8.738281 -18.414062 C 10.011719 -18.414062 11.289062 -17.699219 12.414062 -16.460938 L 15.710938 -19.613281 C 14.0625 -21.523438 11.550781 -22.800781 8.773438 -22.800781 C 5.210938 -22.800781 1.574219 -20.664062 1.574219 -16.164062 C 1.574219 -8.511719 11.960938 -10.351562 11.960938 -6.414062 C 11.960938 -5.175781 10.914062 -4.351562 9.1875 -4.351562 C 7.125 -4.351562 5.511719 -5.511719 4.6875 -7.273438 L 0.601562 -4.726562 C 2.0625 -1.914062 5.210938 0.300781 9.148438 0.300781 Z M 9.148438 0.300781 "/></g></g></g><g fill="#000000" fill-opacity="1"><g transform="translate(193.400602, 254.708832)"><g/></g></g><g fill="#000000" fill-opacity="1"><g transform="translate(201.800588, 254.708832)"><g><path d="M 12.9375 0.300781 C 17.398438 0.300781 21.261719 -2.210938 23.175781 -5.886719 L 18.898438 -8.101562 C 17.8125 -5.960938 15.601562 -4.539062 12.9375 -4.539062 C 9.148438 -4.539062 6.261719 -7.460938 6.261719 -11.25 C 6.261719 -15.039062 9.148438 -17.960938 12.9375 -17.960938 C 15.601562 -17.960938 17.8125 -16.539062 18.898438 -14.398438 L 23.175781 -16.613281 C 21.261719 -20.289062 17.398438 -22.800781 12.9375 -22.800781 C 6.5625 -22.800781 1.386719 -17.625 1.386719 -11.25 C 1.386719 -4.875 6.5625 0.300781 12.9375 0.300781 Z M 12.9375 0.300781 "/></g></g></g><g fill="#000000" fill-opacity="1"><g transform="translate(225.350559, 254.708832)"><g><path d="M 12.9375 0.300781 C 19.351562 0.300781 24.488281 -4.875 24.488281 -11.25 C 24.488281 -17.625 19.351562 -22.800781 12.9375 -22.800781 C 6.5625 -22.800781 1.386719 -17.625 1.386719 -11.25 C 1.386719 -4.875 6.5625 0.300781 12.9375 0.300781 Z M 12.9375 -4.539062 C 9.148438 -4.539062 6.261719 -7.460938 6.261719 -11.25 C 6.261719 -15.039062 9.148438 -17.960938 12.9375 -17.960938 C 16.761719 -17.960938 19.648438 -15.039062 19.648438 -11.25 C 19.648438 -7.460938 16.761719 -4.539062 12.9375 -4.539062 Z M 12.9375 -4.539062 "/></g></g></g><g fill="#000000" fill-opacity="1"><g transform="translate(250.663034, 254.708832)"><g><path d="M 2.210938 0 L 9.636719 0 C 15.824219 0 20.886719 -5.023438 20.886719 -11.25 C 20.886719 -17.476562 15.824219 -22.5 9.636719 -22.5 L 2.210938 -22.5 Z M 7.164062 -4.386719 L 7.164062 -18.113281 L 9.601562 -18.113281 C 13.164062 -18.113281 15.9375 -15.148438 15.9375 -11.25 C 15.9375 -7.351562 13.164062 -4.386719 9.601562 -4.386719 Z M 7.164062 -4.386719 "/></g></g></g><g fill="#000000" fill-opacity="1"><g transform="translate(272.338004, 254.708832)"><g><path d="M 15.9375 -18.148438 L 15.9375 -22.5 L 2.398438 -22.5 L 2.398438 0 L 15.9375 0 L 15.9375 -4.351562 L 7.351562 -4.351562 L 7.351562 -9.074219 L 14.699219 -9.074219 L 14.699219 -13.425781 L 7.351562 -13.425781 L 7.351562 -18.148438 Z M 15.9375 -18.148438 "/></g></g></g></svg>